<svg height="512" viewBox="0 0 64 64" width="512" xmlns="http://www.w3.org/2000/svg"><g id="Circuit-technology-electronics"><path d="m4 3h58v58h-58z" fill="#007579"/><path d="m39 54h-3.278a2 2 0 1 0 0 2h3.278z" fill="#009698"/><path d="m56 53a1.993 1.993 0 0 0 -1.722 1h-3.278v2h3.278a2 2 0 1 0 1.722-3z" fill="#009698"/><path d="m62 20h-5.278a2 2 0 1 0 0 2h5.278z" fill="#009698"/><path d="m17 34h3v3h-3z" fill="#78b9eb"/><path d="m17 21h3v3h-3z" fill="#78b9eb"/><path d="m17 27h3v3h-3z" fill="#78b9eb"/><path d="m17 40h3v3h-3z" fill="#78b9eb"/><path d="m16 54a2 2 0 0 0 -1.721 1h-3.744l-1.535-2.3v-3.979a2 2 0 1 0 -2 0v4.279a1.006 1.006 0 0 0 .168.555l2 3a1 1 0 0 0 .832.445h4.279a2 2 0 1 0 1.721-3z" fill="#009698"/><path d="m44 34h3v3h-3z" fill="#78b9eb"/><path d="m44 40h3v3h-3z" fill="#78b9eb"/><path d="m44 27h3v3h-3z" fill="#78b9eb"/><path d="m44 21h3v3h-3z" fill="#78b9eb"/><path d="m49 52a3 3 0 0 1 0 6h-8a3 3 0 0 1 0-6z" fill="#ff9811"/><path d="m34 17h3v3h-3z" fill="#78b9eb"/><path d="m40 17h3v3h-3z" fill="#78b9eb"/><path d="m27 17h3v3h-3z" fill="#78b9eb"/><path d="m21 17h3v3h-3z" fill="#78b9eb"/><path d="m9 22.279v-12.558a2 2 0 1 0 -2 0v12.558a2 2 0 1 0 2 0z" fill="#009698"/><path d="m14 6h4v8h-4z" fill="#ff5023"/><path d="m47 6h8v3h-8z" fill="#ffda44"/><path d="m47 12h8v3h-8z" fill="#ffda44"/><path d="m20 20h24v24h-24z" fill="#3e3d42"/><path d="m20 20h24a0 0 0 0 1 0 0v1.617a22.383 22.383 0 0 1 -22.383 22.383h-1.617a0 0 0 0 1 0 0v-24a0 0 0 0 1 0 0z" fill="#57565c"/><g fill="#e0e0e2"><path d="m21 17h3v3h-3z"/><path d="m27 17h3v3h-3z"/><path d="m34 17h3v3h-3z"/><path d="m40 17h3v3h-3z"/><path d="m44 21h3v3h-3z"/><path d="m44 27h3v3h-3z"/><path d="m44 34h3v3h-3z"/><path d="m44 40h3v3h-3z"/><path d="m34 44h3v3h-3z"/><path d="m40 44h3v3h-3z"/><path d="m27 44h3v3h-3z"/><path d="m21 44h3v3h-3z"/><path d="m17 40h3v3h-3z"/><path d="m17 34h3v3h-3z"/><path d="m17 27h3v3h-3z"/><path d="m17 21h3v3h-3z"/></g><circle cx="24" cy="24" fill="#ff5023" r="1"/><path d="m54 35.722v9.278h-1.278a2 2 0 1 0 0 2h2.278a1 1 0 0 0 1-1v-10.278a2 2 0 1 0 -2 0z" fill="#009698"/><path d="m24 10a1.993 1.993 0 0 0 1.722-1h7.556a2 2 0 1 0 0-2h-7.556a2 2 0 1 0 -1.722 3z" fill="#009698"/><path d="m21 44h3v1h-3z" fill="#c6c5ca"/><path d="m27 44h3v1h-3z" fill="#c6c5ca"/><path d="m34 44h3v1h-3z" fill="#c6c5ca"/><path d="m40 44h3v1h-3z" fill="#c6c5ca"/><path d="m37 44h3v1h-3z" fill="#006468"/><path d="m43 44h1v1h-1z" fill="#006468"/><path d="m30 44h4v1h-4z" fill="#006468"/><path d="m24 44h3v1h-3z" fill="#006468"/><path d="m20 44h1v1h-1z" fill="#006468"/><path d="m40 53h5v1h-5z" fill="#ffad41"/></g></svg>