<?xml version="1.0"?>
<svg xmlns="http://www.w3.org/2000/svg" id="Capa_1" enable-background="new 0 0 497.001 497.001" height="512px" viewBox="0 0 497.001 497.001" width="512px" class=""><g><path d="m497 366.333v115.667c0 8.284-6.716 15-15 15h-30l-42.575-72.373 42.575-73.294h30c8.285 0 15 6.716 15 15z" fill="#61ce5a" data-original="#61CE5A" class=""/><path d="m467 366.333v115.667c0 8.284-6.716 15-15 15h-85.667c-8.284 0-15-6.716-15-15v-115.667c0-8.284 6.716-15 15-15h85.667c8.285 0 15 6.716 15 15z" fill="#94e368" data-original="#94E368" class=""/><path d="m321.334 366.333v115.667c0 8.284-6.716 15-15 15h-30l-42.575-72.373 42.575-73.294h30c8.284 0 15 6.716 15 15z" fill="#6241ea" data-original="#6241EA" class=""/><path d="m291.334 366.333v115.667c0 8.284-6.716 15-15 15h-85.667c-8.284 0-15-6.716-15-15v-115.667c0-8.284 6.716-15 15-15h85.667c8.284 0 15 6.716 15 15z" fill="#725fee" data-original="#725FEE" class="active-path"/><path d="m145.667 366.333v115.667c0 8.284-6.716 15-15 15h-30l-42.575-72.373 42.575-73.294h30c8.284 0 15 6.716 15 15z" fill="#61ce5a" data-original="#61CE5A" class=""/><path d="m115.667 366.333v115.667c0 8.284-6.716 15-15 15h-85.667c-8.284 0-15-6.716-15-15v-115.667c0-8.284 6.716-15 15-15h85.667c8.284 0 15 6.716 15 15z" fill="#94e368" data-original="#94E368" class=""/><path d="m497 190.667v115.667c0 8.284-6.716 15-15 15h-30l-42.575-72.373 42.575-73.294h30c8.285 0 15 6.715 15 15z" fill="#6241ea" data-original="#6241EA" class=""/><path d="m467 190.667v115.667c0 8.284-6.716 15-15 15h-85.667c-8.284 0-15-6.716-15-15v-115.667c0-8.284 6.716-15 15-15h85.667c8.285 0 15 6.715 15 15z" fill="#725fee" data-original="#725FEE" class="active-path"/><path d="m321.334 190.667v115.667c0 8.284-6.716 15-15 15h-30l-42.575-72.373 42.575-73.294h30c8.284 0 15 6.715 15 15z" fill="#61ce5a" data-original="#61CE5A" class=""/><path d="m291.334 190.667v115.667c0 8.284-6.716 15-15 15h-85.667c-8.284 0-15-6.716-15-15v-115.667c0-8.284 6.716-15 15-15h85.667c8.284 0 15 6.715 15 15z" fill="#94e368" data-original="#94E368" class=""/><path d="m145.667 190.667v115.667c0 8.284-6.716 15-15 15h-30l-42.575-72.373 42.575-73.294h30c8.284 0 15 6.715 15 15z" fill="#6241ea" data-original="#6241EA" class=""/><path d="m117.167 190.667v115.667c0 8.284-6.716 15-15 15h-85.667c-8.284 0-15-6.716-15-15v-115.667c0-8.284 6.716-15 15-15h85.667c8.285 0 15 6.715 15 15z" fill="#725fee" data-original="#725FEE" class="active-path"/><path d="m497 15v115.667c0 8.284-6.716 15-15 15h-30l-42.575-72.373 42.575-73.294h30c8.285 0 15 6.716 15 15z" fill="#61ce5a" data-original="#61CE5A" class=""/><path d="m467 15v115.667c0 8.284-6.716 15-15 15h-85.667c-8.284 0-15-6.716-15-15v-115.667c0-8.284 6.716-15 15-15h85.667c8.285 0 15 6.716 15 15z" fill="#94e368" data-original="#94E368" class=""/><path d="m321.334 15v115.667c0 8.284-6.716 15-15 15h-30l-42.575-72.373 42.575-73.294h30c8.284 0 15 6.716 15 15z" fill="#6241ea" data-original="#6241EA" class=""/><path d="m291.334 15v115.667c0 8.284-6.716 15-15 15h-85.667c-8.284 0-15-6.716-15-15v-115.667c0-8.284 6.716-15 15-15h85.667c8.284 0 15 6.716 15 15z" fill="#725fee" data-original="#725FEE" class="active-path"/><path d="m145.667 15v115.667c0 8.284-6.716 15-15 15h-30l-42.575-72.373 42.575-73.294h30c8.284 0 15 6.716 15 15z" fill="#61ce5a" data-original="#61CE5A" class=""/><path d="m115.667 15v115.667c0 8.284-6.716 15-15 15h-85.667c-8.284 0-15-6.716-15-15v-115.667c0-8.284 6.716-15 15-15h85.667c8.284 0 15 6.716 15 15z" fill="#94e368" data-original="#94E368" class=""/></g> </svg>
